/* XPM */
static char * minimize_xpm[] = {
"24 24 88 1",
" 	c None",
".	c #F5F5F5",
"+	c #FDFDFD",
"@	c #EBEBEB",
"#	c #DEDEDE",
"$	c #DFDFDF",
"%	c #F0F0F0",
"&	c #F2F2F2",
"*	c #F3F3F3",
"=	c #AEAEAE",
"-	c #5F5F5F",
";	c #464646",
">	c #444444",
",	c #474747",
"'	c #6A6A6A",
")	c #BEBEBE",
"!	c #FFFFFF",
"~	c #EAEAEA",
"{	c #F9F9F9",
"]	c #CDCDCD",
"^	c #2C2C2C",
"/	c #323232",
"(	c #333333",
"_	c #313131",
":	c #585858",
"<	c #F7F7F7",
"[	c #939393",
"}	c #2D2D2D",
"|	c #303030",
"1	c #2E2E2E",
"2	c #373737",
"3	c #ABABAB",
"4	c #F8F8F8",
"5	c #FAFAFA",
"6	c #979797",
"7	c #383838",
"8	c #B1B1B1",
"9	c #F4F4F4",
"0	c #D6D6D6",
"a	c #424242",
"b	c #E9E9E9",
"c	c #E4E4E4",
"d	c #535353",
"e	c #2F2F2F",
"f	c #2B2B2B",
"g	c #7D7D7D",
"h	c #C3C3C3",
"i	c #757575",
"j	c #363636",
"k	c #A2A2A2",
"l	c #4B4B4B",
"m	c #353535",
"n	c #6E6E6E",
"o	c #545454",
"p	c #ECECEC",
"q	c #343434",
"r	c #2A2A2A",
"s	c #6C6C6C",
"t	c #FCFCFC",
"u	c #717171",
"v	c #787878",
"w	c #AAAAAA",
"x	c #8C8C8C",
"y	c #9E9E9E",
"z	c #F1F1F1",
"A	c #A4A4A4",
"B	c #FEFEFE",
"C	c #C5C5C5",
"D	c #3C3C3C",
"E	c #E7E7E7",
"F	c #4D4D4D",
"G	c #4C4C4C",
"H	c #606060",
"I	c #5E5E5E",
"J	c #D0D0D0",
"K	c #3D3D3D",
"L	c #8F8F8F",
"M	c #8A8A8A",
"N	c #C2C2C2",
"O	c #3E3E3E",
"P	c #A0A0A0",
"Q	c #414141",
"R	c #454545",
"S	c #5D5D5D",
"T	c #B0B0B0",
"U	c #EFEFEF",
"V	c #F6F6F6",
"W	c #DDDDDD",
"                        ",
"        .+@#$%+&        ",
"      *+=-;>>,')!~      ",
"     {],^/((((_^:#<     ",
"    {[}|((((((((1234    ",
"   56((((((((((((/789   ",
"  %0|((/((((((((((/abc  ",
"  !de(2(/((((((((((fg!  ",
" .h^(}(((/((((((((((}@b ",
" +i_(_(((j|(((((((((1k4 ",
" 4l(((((m((/((((((((_n+ ",
" @,((((/(((((((((((((o! ",
" p,((((/(((7(((((((((d! ",
" <l(((/m(q(/1rrr^(((_st ",
" +u_(_(v=w33w3w3x7((1y{ ",
" z)^(|(AB<{{<{<{CD((^Ep ",
"  !F|/mGHI--I-I-dm(^i!  ",
"  *J}(//((((/////(/KEb  ",
"   5L/((((((((((((jw.   ",
"    .Mf_((((((((e/k5    ",
"     5NO}(((((/^F04     ",
"      <<Pd>QaRST!U      ",
"        VtcW#E+&        ",
"                        "};
