/* XPM */
static char * one_xpm[] = {
"24 24 80 1",
" 	c None",
".	c #F5F5F5",
"+	c #FDFDFD",
"@	c #EBEBEB",
"#	c #DEDEDE",
"$	c #DFDFDF",
"%	c #F0F0F0",
"&	c #F2F2F2",
"*	c #F3F3F3",
"=	c #AEAEAE",
"-	c #5F5F5F",
";	c #464646",
">	c #444444",
",	c #474747",
"'	c #6A6A6A",
")	c #BEBEBE",
"!	c #FFFFFF",
"~	c #EAEAEA",
"{	c #F9F9F9",
"]	c #CDCDCD",
"^	c #2C2C2C",
"/	c #323232",
"(	c #333333",
"_	c #313131",
":	c #585858",
"<	c #F7F7F7",
"[	c #939393",
"}	c #2D2D2D",
"|	c #303030",
"1	c #2E2E2E",
"2	c #373737",
"3	c #ABABAB",
"4	c #F8F8F8",
"5	c #FAFAFA",
"6	c #979797",
"7	c #383838",
"8	c #B1B1B1",
"9	c #F4F4F4",
"0	c #D6D6D6",
"a	c #535353",
"b	c #989898",
"c	c #DCDCDC",
"d	c #424242",
"e	c #E9E9E9",
"f	c #E4E4E4",
"g	c #2F2F2F",
"h	c #363636",
"i	c #2B2B2B",
"j	c #7D7D7D",
"k	c #C3C3C3",
"l	c #545454",
"m	c #757575",
"n	c #343434",
"o	c #A2A2A2",
"p	c #4B4B4B",
"q	c #6E6E6E",
"r	c #ECECEC",
"s	c #6C6C6C",
"t	c #FCFCFC",
"u	c #717171",
"v	c #9E9E9E",
"w	c #F1F1F1",
"x	c #E7E7E7",
"y	c #4D4D4D",
"z	c #353535",
"A	c #D0D0D0",
"B	c #3D3D3D",
"C	c #8F8F8F",
"D	c #AAAAAA",
"E	c #8A8A8A",
"F	c #C2C2C2",
"G	c #3E3E3E",
"H	c #A0A0A0",
"I	c #414141",
"J	c #454545",
"K	c #5D5D5D",
"L	c #B0B0B0",
"M	c #EFEFEF",
"N	c #F6F6F6",
"O	c #DDDDDD",
"                        ",
"        .+@#$%+&        ",
"      *+=-;>>,')!~      ",
"     {],^/((((_^:#<     ",
"    {[}|((((((((1234    ",
"   56((((((((((((/789   ",
"  %0|((/abc!!(((((/def  ",
"  !ag(h(!!!!!((((((ij!  ",
" .k^(|((cbl!!(((((((}@e ",
" +m_(_(((n|!!(((((((1o4 ",
" 4p((((((((!!(((((((_q+ ",
" @,((((/(((!!((((((((l! ",
" r,((((/(((!!((((((((a! ",
" <p(((/((((!!/___(((_st ",
" +u_(/(((((!!(((n(((1v{ ",
" w)^(_(n(((!!(((7n((^xr ",
"  !y|/(n!!!!!!!!z((^m!  ",
"  *A}(//!!!!!!!!/(/Bxe  ",
"   5C/((((((((((((hD.   ",
"    .Ei_((((((((g/o5    ",
"     5FG}(((((/^y04     ",
"      <<Ha>IdJKL!M      ",
"        NtfO#x+&        ",
"                        "};
