/* XPM */
static char * terminal_xpm[] = {
"24 24 104 2",
"  	c None",
". 	c #F5F5F5",
"+ 	c #FDFDFD",
"@ 	c #EBEBEB",
"# 	c #DEDEDE",
"$ 	c #DFDFDF",
"% 	c #F0F0F0",
"& 	c #F2F2F2",
"* 	c #F3F3F3",
"= 	c #AEAEAE",
"- 	c #5F5F5F",
"; 	c #464646",
"> 	c #444444",
", 	c #474747",
"' 	c #6A6A6A",
") 	c #BEBEBE",
"! 	c #FFFFFF",
"~ 	c #EAEAEA",
"{ 	c #F9F9F9",
"] 	c #CDCDCD",
"^ 	c #2C2C2C",
"/ 	c #323232",
"( 	c #333333",
"_ 	c #313131",
": 	c #585858",
"< 	c #F7F7F7",
"[ 	c #939393",
"} 	c #2D2D2D",
"| 	c #303030",
"1 	c #2E2E2E",
"2 	c #373737",
"3 	c #ABABAB",
"4 	c #F8F8F8",
"5 	c #FAFAFA",
"6 	c #979797",
"7 	c #383838",
"8 	c #B1B1B1",
"9 	c #F4F4F4",
"0 	c #D6D6D6",
"a 	c #424242",
"b 	c #E9E9E9",
"c 	c #E4E4E4",
"d 	c #535353",
"e 	c #2F2F2F",
"f 	c #414141",
"g 	c #595959",
"h 	c #2B2B2B",
"i 	c #7D7D7D",
"j 	c #C3C3C3",
"k 	c #B5B5B5",
"l 	c #FBFBFB",
"m 	c #626262",
"n 	c #757575",
"o 	c #818181",
"p 	c #555555",
"q 	c #A2A2A2",
"r 	c #4B4B4B",
"s 	c #9E9E9E",
"t 	c #EEEEEE",
"u 	c #6E6E6E",
"v 	c #D7D7D7",
"w 	c #404040",
"x 	c #545454",
"y 	c #ECECEC",
"z 	c #9F9F9F",
"A 	c #909090",
"B 	c #636363",
"C 	c #2A2A2A",
"D 	c #6C6C6C",
"E 	c #FCFCFC",
"F 	c #717171",
"G 	c #737373",
"H 	c #616161",
"I 	c #787878",
"J 	c #AAAAAA",
"K 	c #8C8C8C",
"L 	c #F1F1F1",
"M 	c #AFAFAF",
"N 	c #707070",
"O 	c #A4A4A4",
"P 	c #FEFEFE",
"Q 	c #C5C5C5",
"R 	c #3C3C3C",
"S 	c #E7E7E7",
"T 	c #4D4D4D",
"U 	c #646464",
"V 	c #4C4C4C",
"W 	c #606060",
"X 	c #5E5E5E",
"Y 	c #353535",
"Z 	c #D0D0D0",
"` 	c #3D3D3D",
" .	c #8F8F8F",
"..	c #363636",
"+.	c #8A8A8A",
"@.	c #C2C2C2",
"#.	c #3E3E3E",
"$.	c #A0A0A0",
"%.	c #454545",
"&.	c #5D5D5D",
"*.	c #B0B0B0",
"=.	c #EFEFEF",
"-.	c #F6F6F6",
";.	c #DDDDDD",
"                                                ",
"                . + @ # $ % + &                 ",
"            * + = - ; > > , ' ) ! ~             ",
"          { ] , ^ / ( ( ( ( _ ^ : # <           ",
"        { [ } | ( ( ( ( ( ( ( ( 1 2 3 4         ",
"      5 6 ( ( ( ( ( ( ( ( ( ( ( ( / 7 8 9       ",
"    % 0 | ( ( / ( ( ( ( ( ( ( ( ( ( / a b c     ",
"    ! d e ( f g / ( ( ( ( ( ( ( ( ( ( h i !     ",
"  . j ^ ( ^ k l m | ( ( ( ( ( ( ( ( ( ( } @ b   ",
"  + n _ ( | o ! ! p | ( ( ( ( ( ( ( ( ( 1 q 4   ",
"  4 r ( ( ( ( s ! t g / ( ( ( ( ( ( ( ( _ u +   ",
"  @ , ( ( ( ( / 8 ! v w ( ( ( ( ( ( ( ( ( x !   ",
"  y , ( ( ( ( | z ! # f ( ( ( ( ( ( ( ( ( d !   ",
"  < r ( ( ( / A ! 9 B / 1 C C C ^ ( ( ( _ D E   ",
"  + F _ ( | G ! ! H | | I = J 3 K 7 ( ( 1 s {   ",
"  L ) ^ ( } M ! N 1 ( } O P < { Q R ( ( ^ S y   ",
"    ! T | / ; U / ( ( / V W X - d Y ( ^ n !     ",
"    * Z } ( / / ( ( ( ( / / / / / ( / ` S b     ",
"      5  ./ ( ( ( ( ( ( ( ( ( ( ( ( ..J .       ",
"        . +.h _ ( ( ( ( ( ( ( ( e / q 5         ",
"          5 @.#.} ( ( ( ( ( / ^ T 0 4           ",
"            < < $.d > f a %.&.*.! =.            ",
"                -.E c ;.# S + &                 ",
"                                                "};
