/* XPM */
static char *mono[] = {
/* columns rows colors chars-per-pixel */
"16 16 22 1 ",
"  c gray4",
". c #111111",
"X c #181818",
"o c #202020",
"O c gray16",
"+ c #323232",
"@ c #3C3C3C",
"# c gray27",
"$ c #4E4E4E",
"% c gray31",
"& c #565656",
"* c gray34",
"= c gray37",
"- c #5F5F5F",
"; c #646464",
": c gray40",
"> c #6A6A6A",
", c #6D6D6D",
"< c gray44",
"1 c gray45",
"2 c #777777",
"3 c None",
/* pixels */
"3333333333333333",
"3333333333333333",
"3333333333333333",
"3333333333333333",
"322221,;=&&#@+33",
"32331,3=&3#@3Oo3",
"3333>;3333@+3333",
"3333;=3333+O3333",
"3333=&3333Oo3333",
"3333&$3333oX3333",
"3333&#3333X.3333",
"333$#@3333. 3333",
"3333333333333333",
"3333333333333333",
"3333333333333333",
"3333333333333333"
};
