<?xml version="1.0" encoding="UTF-8" standalone="no"?>
<!-- Svg Vector Icons : http://www.onlinewebfonts.com/icon -->

<svg
   xmlns:dc="http://purl.org/dc/elements/1.1/"
   xmlns:cc="http://creativecommons.org/ns#"
   xmlns:rdf="http://www.w3.org/1999/02/22-rdf-syntax-ns#"
   xmlns:svg="http://www.w3.org/2000/svg"
   xmlns="http://www.w3.org/2000/svg"
   xmlns:xlink="http://www.w3.org/1999/xlink"
   xmlns:sodipodi="http://sodipodi.sourceforge.net/DTD/sodipodi-0.dtd"
   xmlns:inkscape="http://www.inkscape.org/namespaces/inkscape"
   version="1.1"
   x="0px"
   y="0px"
   viewBox="0 0 1000 1000"
   enable-background="new 0 0 1000 1000"
   xml:space="preserve"
   id="svg2"
   inkscape:version="0.48.5 r10040"
   width="100%"
   height="100%"
   sodipodi:docname="restaurant.svg"><defs
     id="defs12"><clipPath
       id="SVGID_2_"><use
         height="1052.3622"
         width="744.09448"
         y="0"
         x="0"
         style="overflow:visible"
         xlink:href="#SVGID_1_"
         overflow="visible"
         id="use11" /></clipPath><clipPath
       id="clipPath3049"><use
         height="1052.3622"
         width="744.09448"
         y="0"
         x="0"
         style="overflow:visible"
         xlink:href="#SVGID_1_"
         overflow="visible"
         id="use3051" /></clipPath><clipPath
       id="clipPath3053"><use
         height="1052.3622"
         width="744.09448"
         y="0"
         x="0"
         style="overflow:visible"
         xlink:href="#SVGID_1_"
         overflow="visible"
         id="use3055" /></clipPath><clipPath
       id="clipPath3057"><use
         height="1052.3622"
         width="744.09448"
         y="0"
         x="0"
         style="overflow:visible"
         xlink:href="#SVGID_1_"
         overflow="visible"
         id="use3059" /></clipPath><clipPath
       id="clipPath3061"><use
         height="1052.3622"
         width="744.09448"
         y="0"
         x="0"
         style="overflow:visible"
         xlink:href="#SVGID_1_"
         overflow="visible"
         id="use3063" /></clipPath><clipPath
       id="clipPath3065"><use
         height="1052.3622"
         width="744.09448"
         y="0"
         x="0"
         style="overflow:visible"
         xlink:href="#SVGID_1_"
         overflow="visible"
         id="use3067" /></clipPath><clipPath
       id="clipPath3069"><use
         height="1052.3622"
         width="744.09448"
         y="0"
         x="0"
         style="overflow:visible"
         xlink:href="#SVGID_1_"
         overflow="visible"
         id="use3071" /></clipPath><clipPath
       id="clipPath3073"><use
         height="1052.3622"
         width="744.09448"
         y="0"
         x="0"
         style="overflow:visible"
         xlink:href="#SVGID_1_"
         overflow="visible"
         id="use3075" /></clipPath><clipPath
       id="clipPath3077"><use
         height="1052.3622"
         width="744.09448"
         y="0"
         x="0"
         style="overflow:visible"
         xlink:href="#SVGID_1_"
         overflow="visible"
         id="use3079" /></clipPath><clipPath
       id="clipPath3081"><use
         height="1052.3622"
         width="744.09448"
         y="0"
         x="0"
         style="overflow:visible"
         xlink:href="#SVGID_1_"
         overflow="visible"
         id="use3083" /></clipPath><clipPath
       id="clipPath3085"><use
         height="1052.3622"
         width="744.09448"
         y="0"
         x="0"
         style="overflow:visible"
         xlink:href="#SVGID_1_"
         overflow="visible"
         id="use3087" /></clipPath><clipPath
       id="clipPath3089"><use
         height="1052.3622"
         width="744.09448"
         y="0"
         x="0"
         style="overflow:visible"
         xlink:href="#SVGID_1_"
         overflow="visible"
         id="use3091" /></clipPath><clipPath
       id="clipPath3093"><use
         height="1052.3622"
         width="744.09448"
         y="0"
         x="0"
         style="overflow:visible"
         xlink:href="#SVGID_1_"
         overflow="visible"
         id="use3095" /></clipPath><clipPath
       id="clipPath3097"><use
         height="1052.3622"
         width="744.09448"
         y="0"
         x="0"
         style="overflow:visible"
         xlink:href="#SVGID_1_"
         overflow="visible"
         id="use3099" /></clipPath><clipPath
       id="clipPath3101"><use
         height="1052.3622"
         width="744.09448"
         y="0"
         x="0"
         style="overflow:visible"
         xlink:href="#SVGID_1_"
         overflow="visible"
         id="use3103" /></clipPath><clipPath
       id="clipPath3105"><use
         height="1052.3622"
         width="744.09448"
         y="0"
         x="0"
         style="overflow:visible"
         xlink:href="#SVGID_1_"
         overflow="visible"
         id="use3107" /></clipPath><clipPath
       id="clipPath3109"><use
         height="1052.3622"
         width="744.09448"
         y="0"
         x="0"
         style="overflow:visible"
         xlink:href="#SVGID_1_"
         overflow="visible"
         id="use3111" /></clipPath><defs
       id="defs7"><rect
         height="792"
         width="1224"
         y="-294.47501"
         x="-572.95801"
         id="SVGID_1_" /></defs><clipPath
       id="clipPath3116"><use
         id="use3118"
         overflow="visible"
         xlink:href="#SVGID_1_"
         style="overflow:visible"
         x="0"
         y="0"
         width="744.09448"
         height="1052.3622" /></clipPath></defs><sodipodi:namedview
     pagecolor="#ffffff"
     bordercolor="#666666"
     borderopacity="1"
     objecttolerance="10"
     gridtolerance="10"
     guidetolerance="10"
     inkscape:pageopacity="0"
     inkscape:pageshadow="2"
     inkscape:window-width="1920"
     inkscape:window-height="987"
     id="namedview10"
     showgrid="false"
     inkscape:zoom="0.472"
     inkscape:cx="900.84965"
     inkscape:cy="409.72302"
     inkscape:window-x="1362"
     inkscape:window-y="27"
     inkscape:window-maximized="1"
     inkscape:current-layer="svg2" /><metadata
     id="metadata4"> Svg Vector Icons : http://www.onlinewebfonts.com/icon <rdf:RDF><cc:Work
     rdf:about=""><dc:format>image/svg+xml</dc:format><dc:type
       rdf:resource="http://purl.org/dc/dcmitype/StillImage" /></cc:Work></rdf:RDF></metadata><path
     sodipodi:type="arc"
     style="fill:#303048;fill-opacity:1;stroke:#ffffff;stroke-opacity:1"
     id="path3033"
     sodipodi:cx="504.2373"
     sodipodi:cy="504.23727"
     sodipodi:rx="491.52542"
     sodipodi:ry="485.16949"
     d="m 995.76273,504.23727 a 491.52542,485.16949 0 1 1 -983.050846,0 491.52542,485.16949 0 1 1 983.050846,0 z"
     transform="matrix(0.62739103,0,0,0.63761158,176.09849,178.56104)" /><g
     id="g6"
     transform="matrix(0.60708295,0,0,0.60861382,189.04092,194.40071)"
     style="fill:#7c91a7;fill-opacity:1"><path
       d="M 500,10 C 229.4,10 10,229.4 10,500 10,770.6 229.4,990 500,990 770.6,990 990,770.6 990,500 990,229.4 770.6,10 500,10 z m 217.5,498.3 c -31,18.1 -72.3,15.7 -116.4,25.5 23.1,35.2 60.1,65.4 94.9,100.3 14.8,14.8 30.4,32.2 49.3,51 16.1,16.1 40.8,33.4 43.8,56.5 4.5,34.3 -20.7,67.9 -63.8,60.2 -26.1,-4.7 -50,-39 -71.1,-60.2 C 630.9,718.3 609.5,692.7 586.8,676 567,696.9 545,715.7 523,734.3 c -9.7,-9.1 -23.4,-21.6 -38.3,-36.5 -4.4,-4.4 -31.3,-38.6 -38.3,-38.3 -0.7,0 -15,15 -18.2,18.2 -19.3,19.3 -38.4,40.3 -54.7,56.5 -25.4,25.4 -53.1,63.4 -82,67.4 -36.8,5.2 -63.5,-19.8 -62,-54.7 0.8,-18.2 17.5,-35.7 29.2,-47.4 C 302.1,656.1 336.4,626 373.5,582.8 309.5,513.3 257.7,420.9 236.9,306 230.7,271.7 217.1,201.4 257,202.1 c 23.1,0.4 47.9,38.8 63.8,54.7 43.4,43.4 79.2,77 118.5,118.5 19.4,20.4 38,42.9 60.2,56.5 7.8,-38.9 7.3,-86.3 23.7,-116.7 15.7,-29.1 50.6,-56.1 74.7,-80.2 16.7,-16.7 58.2,-70.8 85.7,-71.1 21.9,-0.2 33.8,14.2 32.8,34.6 -1.3,25.2 -43.3,56 -60.2,72.9 -13.5,13.5 -64.5,48.3 -60.2,72.9 1.4,7.7 15,16.2 16.4,16.4 24.7,4.3 62.2,-49.5 72.9,-60.2 18.8,-18.8 47.2,-60.1 74.7,-60.2 18,0 33.2,9 32.8,32.8 -0.3,18.6 -15.6,28.3 -27.3,40.1 -28.1,28.1 -40.3,40.3 -67.4,67.4 -13.1,13.1 -42.4,42.5 -14.6,54.7 26.1,11.5 64.7,-45.2 76,-56.5 24.2,-24.2 66.6,-87 103.3,-49.2 0,12.8 0,25.5 0,38.3 -49.1,37.6 -89.1,107.6 -145.3,140.5 z"
       id="path8"
       inkscape:connector-curvature="0"
       style="fill:#7c91a7;fill-opacity:1;stroke:none" /></g><path
     id="path31"
     d="M 17.47,31.985 C 17.397,31.743 17.327,31.499 17.262,31.253 17.258,31.238 17.254,31.223 17.25,31.208 17.19,30.98 17.135,30.752 17.082,30.522 17.071,30.475 17.061,30.428 17.051,30.381 17.007,30.184 16.967,29.985 16.928,29.786 16.911,29.697 16.896,29.608 16.881,29.519 16.853,29.36 16.825,29.202 16.8,29.041 16.779,28.904 16.761,28.768 16.743,28.631 16.617,27.697 16.549,26.748 16.55,25.787 h -4.375 c -0.001,1.048 0.065,2.083 0.188,3.105 l 0,0 c 0.002,0.022 0.006,0.044 0.009,0.066 0.034,0.278 0.072,0.556 0.115,0.831 0.012,0.076 0.025,0.152 0.038,0.229 0.038,0.226 0.077,0.452 0.121,0.677 0.022,0.12 0.048,0.238 0.073,0.357 0.037,0.179 0.075,0.358 0.116,0.536 0.036,0.156 0.075,0.312 0.115,0.468 0.035,0.139 0.069,0.278 0.106,0.417 0.05,0.184 0.103,0.366 0.156,0.549 0.022,0.076 0.042,0.154 0.065,0.229 h 0.002 c 0.302,0.999 0.66,1.974 1.076,2.918 l 4.009,-1.763 C 18.019,33.624 17.721,32.814 17.47,31.985 z"
     clip-path="url(#SVGID_2_)"
     inkscape:connector-curvature="0"
     style="fill:#435363"
     transform="matrix(18.646557,0,0,18.646557,-215.3966,19.322032)" /><path
     id="path33"
     d="m 37.965,47.204 c -5.904,0 -11.256,-2.404 -15.133,-6.282 l -3.099,3.099 c 4.667,4.667 11.111,7.557 18.232,7.557 13.151,0 24.001,-9.844 25.588,-22.565 h -4.415 c -1.56,10.283 -10.46,18.191 -21.173,18.191"
     clip-path="url(#SVGID_2_)"
     inkscape:connector-curvature="0"
     style="fill:#f38b00"
     transform="matrix(18.646557,0,0,18.646557,-215.3966,19.322032)" /><path
     id="path35"
     d="m 37.965,4.374 c 4.797,0 9.228,1.585 12.802,4.26 L 53.388,5.121 C 49.086,1.905 43.748,0 37.965,0 27.022,0 17.672,6.816 13.928,16.435 l 4.081,1.588 C 21.124,10.042 28.895,4.374 37.965,4.374"
     clip-path="url(#SVGID_2_)"
     inkscape:connector-curvature="0"
     style="fill:#f38b00"
     transform="matrix(18.646557,0,0,18.646557,-215.3966,19.322032)" /><path
     id="path37"
     d="m 59.138,22.565 h 4.415 C 63.08,18.77 61.782,15.231 59.844,12.133 l -3.718,2.32 c 1.518,2.423 2.565,5.17 3.012,8.112"
     clip-path="url(#SVGID_2_)"
     inkscape:connector-curvature="0"
     style="fill:#435363"
     transform="matrix(18.646557,0,0,18.646557,-215.3966,19.322032)" /><path
     id="path39"
     d="m 54.164,22.565 h 4.43 C 57.438,15.137 52.351,8.995 45.534,6.334 l -1.582,4.068 c 5.184,2.024 9.105,6.591 10.212,12.163"
     clip-path="url(#SVGID_2_)"
     inkscape:connector-curvature="0"
     style="fill:#f38b00"
     transform="matrix(18.646557,0,0,18.646557,-215.3966,19.322032)" /><path
     id="path41"
     d="m 37.965,9.273 0,0 10e-4,-4.362 h -10e-4 c -8.843,0 -16.418,5.526 -19.456,13.307 L 22.574,19.8 C 24.978,13.645 30.97,9.273 37.965,9.273"
     clip-path="url(#SVGID_2_)"
     inkscape:connector-curvature="0"
     style="fill:#435363"
     transform="matrix(18.646557,0,0,18.646557,-215.3966,19.322032)" /><path
     id="path43"
     d="m 21.45,25.788 0,0 h -4.362 l 0,0 c 0,8.773 5.441,16.296 13.125,19.38 l 1.62,-4.049 C 25.754,38.679 21.45,32.728 21.45,25.788"
     clip-path="url(#SVGID_2_)"
     inkscape:connector-curvature="0"
     style="fill:#f38b00"
     transform="matrix(18.646557,0,0,18.646557,-215.3966,19.322032)" /><path
     id="path45"
     d="m 37.965,42.303 v 4.363 c 10.416,0 19.074,-7.668 20.629,-17.655 h -4.431 c -1.503,7.57 -8.194,13.292 -16.198,13.292"
     clip-path="url(#SVGID_2_)"
     inkscape:connector-curvature="0"
     style="fill:#435363;fill-opacity:1"
     transform="matrix(18.646557,0,0,18.646557,-215.3966,19.322032)" /></svg>