<?xml version="1.0" encoding="UTF-8" standalone="no"?>
<!-- Svg Vector Icons : http://www.onlinewebfonts.com/icon -->

<svg
   xmlns:dc="http://purl.org/dc/elements/1.1/"
   xmlns:cc="http://creativecommons.org/ns#"
   xmlns:rdf="http://www.w3.org/1999/02/22-rdf-syntax-ns#"
   xmlns:svg="http://www.w3.org/2000/svg"
   xmlns="http://www.w3.org/2000/svg"
   xmlns:xlink="http://www.w3.org/1999/xlink"
   xmlns:sodipodi="http://sodipodi.sourceforge.net/DTD/sodipodi-0.dtd"
   xmlns:inkscape="http://www.inkscape.org/namespaces/inkscape"
   version="1.1"
   x="0px"
   y="0px"
   viewBox="0 0 1000 1000"
   enable-background="new 0 0 1000 1000"
   xml:space="preserve"
   id="svg2"
   inkscape:version="0.48.5 r10040"
   width="100%"
   height="100%"
   sodipodi:docname="restaurant.svg"><defs
     id="defs12"><clipPath
       id="SVGID_2_"><use
         height="1052.3622"
         width="744.09448"
         y="0"
         x="0"
         style="overflow:visible"
         xlink:href="#SVGID_1_"
         overflow="visible"
         id="use11" /></clipPath><clipPath
       id="clipPath3049"><use
         height="1052.3622"
         width="744.09448"
         y="0"
         x="0"
         style="overflow:visible"
         xlink:href="#SVGID_1_"
         overflow="visible"
         id="use3051" /></clipPath><clipPath
       id="clipPath3053"><use
         height="1052.3622"
         width="744.09448"
         y="0"
         x="0"
         style="overflow:visible"
         xlink:href="#SVGID_1_"
         overflow="visible"
         id="use3055" /></clipPath><clipPath
       id="clipPath3057"><use
         height="1052.3622"
         width="744.09448"
         y="0"
         x="0"
         style="overflow:visible"
         xlink:href="#SVGID_1_"
         overflow="visible"
         id="use3059" /></clipPath><clipPath
       id="clipPath3061"><use
         height="1052.3622"
         width="744.09448"
         y="0"
         x="0"
         style="overflow:visible"
         xlink:href="#SVGID_1_"
         overflow="visible"
         id="use3063" /></clipPath><clipPath
       id="clipPath3065"><use
         height="1052.3622"
         width="744.09448"
         y="0"
         x="0"
         style="overflow:visible"
         xlink:href="#SVGID_1_"
         overflow="visible"
         id="use3067" /></clipPath><clipPath
       id="clipPath3069"><use
         height="1052.3622"
         width="744.09448"
         y="0"
         x="0"
         style="overflow:visible"
         xlink:href="#SVGID_1_"
         overflow="visible"
         id="use3071" /></clipPath><clipPath
       id="clipPath3073"><use
         height="1052.3622"
         width="744.09448"
         y="0"
         x="0"
         style="overflow:visible"
         xlink:href="#SVGID_1_"
         overflow="visible"
         id="use3075" /></clipPath><clipPath
       id="clipPath3077"><use
         height="1052.3622"
         width="744.09448"
         y="0"
         x="0"
         style="overflow:visible"
         xlink:href="#SVGID_1_"
         overflow="visible"
         id="use3079" /></clipPath><clipPath
       id="clipPath3081"><use
         height="1052.3622"
         width="744.09448"
         y="0"
         x="0"
         style="overflow:visible"
         xlink:href="#SVGID_1_"
         overflow="visible"
         id="use3083" /></clipPath><clipPath
       id="clipPath3085"><use
         height="1052.3622"
         width="744.09448"
         y="0"
         x="0"
         style="overflow:visible"
         xlink:href="#SVGID_1_"
         overflow="visible"
         id="use3087" /></clipPath><clipPath
       id="clipPath3089"><use
         height="1052.3622"
         width="744.09448"
         y="0"
         x="0"
         style="overflow:visible"
         xlink:href="#SVGID_1_"
         overflow="visible"
         id="use3091" /></clipPath><clipPath
       id="clipPath3093"><use
         height="1052.3622"
         width="744.09448"
         y="0"
         x="0"
         style="overflow:visible"
         xlink:href="#SVGID_1_"
         overflow="visible"
         id="use3095" /></clipPath><clipPath
       id="clipPath3097"><use
         height="1052.3622"
         width="744.09448"
         y="0"
         x="0"
         style="overflow:visible"
         xlink:href="#SVGID_1_"
         overflow="visible"
         id="use3099" /></clipPath><clipPath
       id="clipPath3101"><use
         height="1052.3622"
         width="744.09448"
         y="0"
         x="0"
         style="overflow:visible"
         xlink:href="#SVGID_1_"
         overflow="visible"
         id="use3103" /></clipPath><clipPath
       id="clipPath3105"><use
         height="1052.3622"
         width="744.09448"
         y="0"
         x="0"
         style="overflow:visible"
         xlink:href="#SVGID_1_"
         overflow="visible"
         id="use3107" /></clipPath><clipPath
       id="clipPath3109"><use
         height="1052.3622"
         width="744.09448"
         y="0"
         x="0"
         style="overflow:visible"
         xlink:href="#SVGID_1_"
         overflow="visible"
         id="use3111" /></clipPath><defs
       id="defs7"><rect
         height="792"
         width="1224"
         y="-294.47501"
         x="-572.95801"
         id="SVGID_1_" /></defs><clipPath
       id="clipPath3116"><use
         id="use3118"
         overflow="visible"
         xlink:href="#SVGID_1_"
         style="overflow:visible"
         x="0"
         y="0"
         width="744.09448"
         height="1052.3622" /></clipPath></defs><sodipodi:namedview
     pagecolor="#ffffff"
     bordercolor="#666666"
     borderopacity="1"
     objecttolerance="10"
     gridtolerance="10"
     guidetolerance="10"
     inkscape:pageopacity="0"
     inkscape:pageshadow="2"
     inkscape:window-width="1920"
     inkscape:window-height="987"
     id="namedview10"
     showgrid="false"
     inkscape:zoom="1.616807"
     inkscape:cx="475.87632"
     inkscape:cy="546.4545"
     inkscape:window-x="1362"
     inkscape:window-y="27"
     inkscape:window-maximized="1"
     inkscape:current-layer="svg2" /><metadata
     id="metadata4"> Svg Vector Icons : http://www.onlinewebfonts.com/icon <rdf:RDF><cc:Work
     rdf:about=""><dc:format>image/svg+xml</dc:format><dc:type
       rdf:resource="http://purl.org/dc/dcmitype/StillImage" /><dc:title /></cc:Work></rdf:RDF></metadata><path
     id="path31"
     d="M 17.47,31.985 C 17.397,31.743 17.327,31.499 17.262,31.253 17.258,31.238 17.254,31.223 17.25,31.208 17.19,30.98 17.135,30.752 17.082,30.522 17.071,30.475 17.061,30.428 17.051,30.381 17.007,30.184 16.967,29.985 16.928,29.786 16.911,29.697 16.896,29.608 16.881,29.519 16.853,29.36 16.825,29.202 16.8,29.041 16.779,28.904 16.761,28.768 16.743,28.631 16.617,27.697 16.549,26.748 16.55,25.787 h -4.375 c -0.001,1.048 0.065,2.083 0.188,3.105 l 0,0 c 0.002,0.022 0.006,0.044 0.009,0.066 0.034,0.278 0.072,0.556 0.115,0.831 0.012,0.076 0.025,0.152 0.038,0.229 0.038,0.226 0.077,0.452 0.121,0.677 0.022,0.12 0.048,0.238 0.073,0.357 0.037,0.179 0.075,0.358 0.116,0.536 0.036,0.156 0.075,0.312 0.115,0.468 0.035,0.139 0.069,0.278 0.106,0.417 0.05,0.184 0.103,0.366 0.156,0.549 0.022,0.076 0.042,0.154 0.065,0.229 h 0.002 c 0.302,0.999 0.66,1.974 1.076,2.918 l 4.009,-1.763 C 18.019,33.624 17.721,32.814 17.47,31.985 z"
     clip-path="url(#SVGID_2_)"
     inkscape:connector-curvature="0"
     style="fill:#435363"
     transform="matrix(18.646557,0,0,18.646557,-215.3966,19.322032)" /><path
     id="path33"
     d="m 37.965,47.204 c -5.904,0 -11.256,-2.404 -15.133,-6.282 l -3.099,3.099 c 4.667,4.667 11.111,7.557 18.232,7.557 13.151,0 24.001,-9.844 25.588,-22.565 h -4.415 c -1.56,10.283 -10.46,18.191 -21.173,18.191"
     clip-path="url(#SVGID_2_)"
     inkscape:connector-curvature="0"
     style="fill:#f38b00"
     transform="matrix(18.646557,0,0,18.646557,-215.3966,19.322032)" /><path
     id="path35"
     d="m 37.965,4.374 c 4.797,0 9.228,1.585 12.802,4.26 L 53.388,5.121 C 49.086,1.905 43.748,0 37.965,0 27.022,0 17.672,6.816 13.928,16.435 l 4.081,1.588 C 21.124,10.042 28.895,4.374 37.965,4.374"
     clip-path="url(#SVGID_2_)"
     inkscape:connector-curvature="0"
     style="fill:#f38b00"
     transform="matrix(18.646557,0,0,18.646557,-215.3966,19.322032)" /><path
     id="path37"
     d="m 59.138,22.565 h 4.415 C 63.08,18.77 61.782,15.231 59.844,12.133 l -3.718,2.32 c 1.518,2.423 2.565,5.17 3.012,8.112"
     clip-path="url(#SVGID_2_)"
     inkscape:connector-curvature="0"
     style="fill:#435363"
     transform="matrix(18.646557,0,0,18.646557,-215.3966,19.322032)" /><path
     id="path39"
     d="m 54.164,22.565 h 4.43 C 57.438,15.137 52.351,8.995 45.534,6.334 l -1.582,4.068 c 5.184,2.024 9.105,6.591 10.212,12.163"
     clip-path="url(#SVGID_2_)"
     inkscape:connector-curvature="0"
     style="fill:#f38b00"
     transform="matrix(18.646557,0,0,18.646557,-215.3966,19.322032)" /><path
     id="path41"
     d="m 37.965,9.273 0,0 10e-4,-4.362 h -10e-4 c -8.843,0 -16.418,5.526 -19.456,13.307 L 22.574,19.8 C 24.978,13.645 30.97,9.273 37.965,9.273"
     clip-path="url(#SVGID_2_)"
     inkscape:connector-curvature="0"
     style="fill:#435363"
     transform="matrix(18.646557,0,0,18.646557,-215.3966,19.322032)" /><path
     id="path43"
     d="m 21.45,25.788 0,0 h -4.362 l 0,0 c 0,8.773 5.441,16.296 13.125,19.38 l 1.62,-4.049 C 25.754,38.679 21.45,32.728 21.45,25.788"
     clip-path="url(#SVGID_2_)"
     inkscape:connector-curvature="0"
     style="fill:#f38b00"
     transform="matrix(18.646557,0,0,18.646557,-215.3966,19.322032)" /><path
     id="path45"
     d="m 37.965,42.303 v 4.363 c 10.416,0 19.074,-7.668 20.629,-17.655 h -4.431 c -1.503,7.57 -8.194,13.292 -16.198,13.292"
     clip-path="url(#SVGID_2_)"
     inkscape:connector-curvature="0"
     style="fill:#435363;fill-opacity:1"
     transform="matrix(18.646557,0,0,18.646557,-215.3966,19.322032)" /><path
     style="fill:#f38b00;fill-opacity:1"
     d="M 492.59375 200.5 C 328.3171 200.5 195.125 334.02785 195.125 498.71875 C 195.125 663.40965 328.3171 796.9375 492.59375 796.9375 C 635.98153 796.9375 755.65651 695.20016 783.78125 559.8125 L 590.375 559.8125 C 597.35358 566.4773 604.5186 573.23054 611.5625 580.3125 C 620.54733 589.31999 630.02613 599.93306 641.5 611.375 C 651.27404 621.17368 666.2725 631.69102 668.09375 645.75 C 670.82562 666.62545 655.50903 687.06133 629.34375 682.375 C 613.49889 679.51452 598.99695 658.65261 586.1875 645.75 C 572.04246 631.5693 559.06203 615.97635 545.28125 605.8125 C 533.261 618.53253 519.88708 629.99228 506.53125 641.3125 C 500.64255 635.77411 492.32678 628.1621 483.28125 619.09375 C 480.61008 616.41585 464.28083 595.59867 460.03125 595.78125 C 459.60629 595.78125 450.94266 604.89618 449 606.84375 C 437.2833 618.58999 425.6767 631.39045 415.78125 641.25 C 400.36134 656.70879 383.5447 679.81554 366 682.25 C 343.65935 685.41479 327.46437 670.20937 328.375 648.96875 C 328.86066 637.89198 338.99088 627.24578 346.09375 620.125 C 372.44115 593.71116 393.25847 575.38587 415.78125 549.09375 C 376.92794 506.79509 345.47108 450.55473 332.84375 380.625 C 329.07984 359.74954 320.83989 316.98022 345.0625 317.40625 C 359.08611 317.6497 374.12863 341.01054 383.78125 350.6875 C 410.12865 377.10134 431.86039 397.55502 455.71875 422.8125 C 467.49616 435.22822 478.80401 448.91035 492.28125 457.1875 C 497.0165 433.51242 496.70009 404.68936 506.65625 386.1875 C 516.18745 368.47684 537.40055 352.04259 552.03125 337.375 C 562.16953 327.21115 587.33647 294.27634 604.03125 294.09375 C 617.32637 293.97203 624.57583 302.74053 623.96875 315.15625 C 623.17954 330.49332 597.66595 349.24568 587.40625 359.53125 C 579.21063 367.74754 548.26454 388.9031 550.875 403.875 C 551.72491 408.56132 559.96258 413.75328 560.8125 413.875 C 575.80745 416.49204 598.56671 383.73092 605.0625 377.21875 C 616.47566 365.77681 633.74272 340.65461 650.4375 340.59375 C 661.365 340.59375 670.58659 346.07749 670.34375 360.5625 C 670.16163 371.88272 660.85287 377.7871 653.75 384.96875 L 612.84375 425.96875 C 609.37194 429.44931 604.04942 434.84074 600.53125 440.40625 L 636.875 440.40625 C 642.74634 433.78101 647.58065 427.42577 650.125 424.875 C 664.81641 410.14655 690.5638 371.9319 712.84375 394.9375 L 712.84375 418.25 C 704.75153 424.46252 697.05397 432.1334 689.46875 440.40625 L 784.34375 440.40625 C 757.30166 303.61886 636.97172 200.5 492.59375 200.5 z "
     id="path8" /></svg>